<?xml version="1.0" encoding="UTF-8"?>
<svg xmlns="http://www.w3.org/2000/svg" xmlns:xlink="http://www.w3.org/1999/xlink" width="1080pt" height="1080pt" viewBox="0 0 1080 1080" version="1.2">
<g id="surface1">
<path style=" stroke:none;fill-rule:nonzero;fill:#29741d;fill-opacity:1;" d="M 702.078125 529.277344 C 700.523438 525.636719 696.839844 523.386719 693.355469 523.515625 C 690.441406 523.621094 686.84375 526.007812 685.527344 529.210938 C 680.871094 540.546875 681.699219 562.890625 693.378906 563.40625 C 705.378906 563.941406 707.347656 541.617188 702.078125 529.277344 M 679.992188 558.015625 L 673.113281 565.328125 C 672.429688 566.054688 669.972656 566.34375 668.972656 566.222656 L 668.988281 506.75 C 668.988281 502.535156 666.621094 503.824219 664.285156 500.300781 C 663.929688 499.769531 665.675781 498.210938 666.492188 498.042969 L 682.789062 494.621094 L 683.035156 524.914062 C 692.765625 516.625 707.578125 517.90625 714.488281 528.617188 C 719.839844 536.910156 719.679688 547.71875 715.636719 556.394531 C 712.4375 563.253906 705.648438 566.703125 699.28125 567.269531 C 691.425781 567.972656 685.339844 565.320312 679.992188 558.015625 "/>
<path style=" stroke:none;fill-rule:nonzero;fill:#29741d;fill-opacity:1;" d="M 655.019531 558.425781 C 655.023438 563.019531 658.296875 561.324219 659.691406 564.945312 C 659.929688 565.570312 657.769531 566.417969 656.964844 566.417969 L 641.785156 566.4375 L 640.554688 562.089844 C 635.921875 566.359375 630.425781 567.867188 624.042969 567.183594 C 616.410156 566.367188 609.71875 560.695312 609.535156 552.359375 L 609.023438 529.328125 L 603.429688 523.886719 C 610.863281 521.734375 616.050781 520.546875 622.820312 519.394531 L 623.058594 553.210938 C 623.097656 558.378906 627.117188 562.390625 631.625 562.40625 C 635.761719 562.417969 640.683594 558.914062 640.777344 553.785156 L 641.195312 531.320312 C 641.21875 529.890625 639.257812 527.433594 638.183594 526.605469 L 636.410156 525.230469 C 636.035156 524.945312 637.246094 523.089844 637.820312 522.964844 L 654.996094 519.238281 Z M 655.019531 558.425781 "/>
<path style=" stroke:none;fill-rule:nonzero;fill:#29741d;fill-opacity:1;" d="M 602.847656 566.207031 L 582.601562 566.464844 C 581.761719 566.476562 580.152344 565.96875 579.644531 565.742188 C 575.96875 564.109375 584.421875 564.578125 584.398438 556.460938 L 584.230469 504.238281 C 581.804688 502.539062 580.878906 501.925781 578.601562 499.214844 C 586.101562 497.046875 591.238281 495.824219 598.1875 494.777344 L 598.375 561.480469 C 601.019531 562.414062 602.992188 563.253906 602.847656 566.207031 "/>
<path style=" stroke:none;fill-rule:nonzero;fill:#29741d;fill-opacity:1;" d="M 549.078125 527.011719 C 543.835938 535.109375 543.835938 546.558594 549.777344 553.914062 C 556.476562 562.210938 566.820312 560.324219 575.941406 553.867188 C 573.800781 564.367188 562.027344 568.414062 552.554688 567.121094 C 539.78125 565.378906 531.519531 555.242188 531.785156 542.4375 C 531.960938 534.070312 535.691406 526.386719 543.308594 522.613281 C 554.382812 517.121094 571.933594 519.023438 575.136719 529.347656 C 576.574219 533.976562 574.160156 537.867188 569.972656 538.316406 C 566.347656 538.710938 562.746094 536.199219 562.964844 531.351562 C 563.039062 529.738281 562.570312 525.769531 561.414062 524.617188 C 558.195312 521.402344 551.925781 522.613281 549.078125 527.011719 "/>
<path style=" stroke:none;fill-rule:nonzero;fill:rgb(96.862793%,96.862793%,98.039246%);fill-opacity:1;" d="M 702.078125 529.277344 C 707.347656 541.617188 705.378906 563.941406 693.378906 563.40625 C 681.699219 562.890625 680.871094 540.546875 685.527344 529.210938 C 686.84375 526.007812 690.441406 523.621094 693.355469 523.515625 C 696.839844 523.386719 700.523438 525.636719 702.078125 529.277344 "/>
<path style=" stroke:none;fill-rule:nonzero;fill:#29741d;fill-opacity:1;" d="M 494.613281 534.375 C 494.605469 528.667969 490.984375 524.5625 486.121094 524.527344 C 482.1875 524.5 477.109375 527.992188 477.03125 533.207031 L 476.652344 558.363281 C 476.589844 562.449219 479.945312 561.546875 481.429688 564.929688 C 481.699219 565.535156 479.449219 566.566406 478.734375 566.550781 L 457.675781 566.085938 C 459.296875 562.933594 460.359375 562.351562 462.722656 560.589844 L 462.882812 531.375 C 462.890625 529.789062 461.039062 527.53125 459.890625 526.582031 L 458.128906 525.125 C 457.648438 524.730469 459.324219 522.953125 460.019531 522.796875 L 475.472656 519.269531 L 477.039062 524.9375 C 481.898438 520.773438 486.652344 519.246094 492.792969 519.632812 C 501.386719 520.171875 508.28125 526.457031 508.421875 535.578125 L 508.8125 560.539062 C 511.015625 562.335938 512.070312 563.109375 513.894531 565.972656 C 504.910156 566.550781 498.394531 566.550781 489.414062 565.972656 C 491.246094 563.050781 492.234375 562.429688 494.648438 560.578125 Z M 494.613281 534.375 "/>
<path style=" stroke:none;fill-rule:nonzero;fill:#29741d;fill-opacity:1;" d="M 449.855469 558.324219 C 449.859375 563.261719 453.835938 561.671875 454.550781 564.941406 C 454.695312 565.597656 452.632812 566.421875 451.953125 566.421875 L 436.625 566.4375 L 435.394531 562.089844 C 430.765625 566.363281 425.265625 567.863281 418.882812 567.183594 C 411.253906 566.367188 404.558594 560.695312 404.375 552.359375 L 403.863281 529.328125 L 398.269531 523.886719 C 405.707031 521.734375 410.890625 520.546875 417.664062 519.394531 L 417.902344 553.210938 C 417.9375 558.378906 421.960938 562.390625 426.464844 562.40625 C 430.601562 562.421875 435.527344 558.914062 435.621094 553.785156 L 436.035156 531.320312 C 436.0625 529.886719 434.097656 527.433594 433.027344 526.605469 L 431.25 525.230469 C 430.878906 524.945312 432.085938 523.085938 432.660156 522.964844 L 449.839844 519.28125 Z M 449.855469 558.324219 "/>
<path style=" stroke:none;fill-rule:nonzero;fill:#29741d;fill-opacity:1;" d="M 375.859375 557.132812 C 375.824219 563.8125 379.753906 561.238281 380.835938 564.941406 C 381.027344 565.585938 378.910156 566.546875 378.03125 566.53125 L 356.796875 566.109375 C 358.632812 562.984375 359.625 562.476562 362.164062 560.570312 L 362.175781 529.167969 L 356.425781 523.820312 L 374.410156 519.1875 L 376.449219 523.773438 C 382.175781 518.59375 392.109375 517.484375 396.789062 524.554688 C 398.144531 526.601562 398.0625 530.441406 396.746094 532.605469 C 395.765625 534.21875 392.695312 535.445312 389.960938 535.070312 C 384.6875 534.355469 385.539062 527.179688 382.605469 525.5 C 380.101562 524.066406 376.007812 528.769531 375.976562 534.347656 Z M 375.859375 557.132812 "/>
<path style=" stroke:none;fill-rule:nonzero;fill:#29741d;fill-opacity:1;" d="M 452.394531 698.558594 C 452.980469 692.851562 458.84375 690.789062 463.007812 691.371094 C 467.839844 692.050781 470.25 696.28125 470.039062 701.582031 C 469.214844 722.074219 473.082031 742.46875 484.230469 759.753906 C 498.648438 782.117188 524.921875 791.761719 550.097656 783.179688 C 580.714844 772.738281 599.765625 744.167969 609.007812 714.226562 C 610.558594 709.195312 611.980469 704.253906 612.691406 699.109375 C 613.363281 694.265625 616.304688 690.882812 620.882812 690.625 C 625.359375 690.371094 629.90625 693.621094 630.316406 698.777344 C 630.707031 703.714844 629.914062 708.566406 628.625 713.421875 C 623.160156 733.960938 614.597656 752.9375 600.898438 769.144531 C 588.859375 783.390625 574.4375 794.382812 556.929688 800.566406 C 531.285156 809.621094 503.644531 804.78125 483.613281 786.550781 C 459.589844 764.683594 449.070312 731.085938 452.394531 698.558594 "/>
<path style=" stroke:none;fill-rule:nonzero;fill:#29741d;fill-opacity:1;" d="M 568.460938 689.460938 C 573.027344 692.476562 571.828125 700.429688 567.070312 702.609375 L 533.84375 717.828125 C 526.367188 721.25 516.433594 718.648438 512.644531 711.027344 C 510.773438 707.269531 511.335938 701.128906 512.859375 696.785156 L 539.492188 620.929688 C 541.691406 614.660156 550.613281 615.570312 552.140625 617.800781 C 552.800781 618.769531 553.566406 621.859375 553.183594 623.074219 L 528.121094 702.515625 C 538.441406 700.960938 561.386719 684.792969 568.460938 689.460938 "/>
<path style=" stroke:none;fill-rule:nonzero;fill:#29741d;fill-opacity:1;" d="M 515.796875 649.414062 C 515.796875 655.34375 510.988281 660.152344 505.058594 660.152344 C 499.128906 660.152344 494.320312 655.34375 494.320312 649.414062 C 494.320312 643.480469 499.128906 638.675781 505.058594 638.675781 C 510.988281 638.675781 515.796875 643.480469 515.796875 649.414062 "/>
<path style=" stroke:none;fill-rule:nonzero;fill:#29741d;fill-opacity:1;" d="M 583.449219 652.046875 C 583.449219 657.964844 578.652344 662.761719 572.738281 662.761719 C 566.820312 662.761719 562.027344 657.964844 562.027344 652.046875 C 562.027344 646.132812 566.820312 641.335938 572.738281 641.335938 C 578.652344 641.335938 583.449219 646.132812 583.449219 652.046875 "/>
<path style=" stroke:none;fill-rule:nonzero;fill:#29741d;fill-opacity:1;" d="M 555.425781 399.976562 C 555.425781 404.902344 559.410156 403.328125 560.117188 406.589844 C 560.257812 407.238281 558.203125 408.070312 557.519531 408.070312 L 542.195312 408.085938 L 540.964844 403.738281 C 536.332031 408.011719 530.832031 409.515625 524.449219 408.832031 C 516.820312 408.015625 510.128906 402.34375 509.941406 394.007812 L 509.433594 370.976562 L 503.835938 365.535156 C 511.273438 363.382812 516.457031 362.195312 523.230469 361.042969 L 523.46875 394.859375 C 523.503906 400.027344 527.527344 404.039062 532.03125 404.054688 C 536.171875 404.066406 541.09375 400.5625 541.1875 395.433594 L 541.601562 372.96875 C 541.628906 371.535156 539.667969 369.082031 538.59375 368.253906 L 536.820312 366.882812 C 536.445312 366.59375 537.652344 364.734375 538.230469 364.609375 L 555.40625 360.929688 Z M 555.425781 399.976562 "/>
<path style=" stroke:none;fill-rule:nonzero;fill:#29741d;fill-opacity:1;" d="M 484.945312 370.9375 C 483.4375 367.402344 479.761719 365.039062 476.277344 365.222656 C 473.578125 365.363281 469.960938 367.769531 468.632812 370.839844 C 463.175781 383.449219 465.390625 405.488281 477.238281 405.050781 C 488.039062 404.65625 490.226562 383.304688 484.945312 370.9375 M 501.589844 385.132812 C 501.589844 398.839844 490.480469 409.953125 476.773438 409.953125 C 463.066406 409.953125 451.953125 398.839844 451.953125 385.132812 C 451.953125 371.425781 463.066406 360.316406 476.773438 360.316406 C 490.480469 360.316406 501.589844 371.425781 501.589844 385.132812 "/>
<path style=" stroke:none;fill-rule:nonzero;fill:#29741d;fill-opacity:1;" d="M 448.636719 366.753906 L 428.71875 413.96875 C 426.949219 418.160156 424.605469 422.335938 421.71875 425.796875 C 416.6875 431.8125 406.410156 431.558594 401.695312 425.753906 C 399.457031 422.996094 400.808594 418.882812 403.105469 417.777344 C 406.394531 416.191406 409.25 417.769531 410.542969 421.316406 C 410.980469 422.519531 412.023438 424.257812 412.855469 424.859375 C 417.765625 428.40625 424.96875 414.519531 425.566406 410.285156 L 407.671875 370.785156 C 406.519531 368.238281 403.878906 366.308594 401.285156 364.96875 L 401.171875 362.230469 L 422.882812 362.21875 C 423.546875 362.21875 425.625 362.507812 425.460938 362.988281 L 424.5625 365.605469 C 423.113281 366.078125 421.4375 368.582031 421.910156 369.714844 L 432.289062 394.648438 L 443.398438 367.546875 C 441.136719 365.976562 439.496094 364.144531 439.882812 362.367188 L 452.378906 362.171875 C 455.984375 365.671875 449.324219 365.125 448.636719 366.753906 "/>
<path style=" stroke:none;fill-rule:nonzero;fill:#29741d;fill-opacity:1;" d="M 658.308594 379.15625 L 656.765625 370.074219 C 656.363281 367.691406 653.234375 364.933594 651.214844 364.585938 C 643.332031 363.230469 639.640625 371.53125 638.953125 379.140625 Z M 639.417969 384.164062 C 639.265625 391.15625 643.128906 396.925781 648.488281 399.550781 C 654.445312 402.46875 661.90625 400.917969 666.722656 396.886719 C 674.4375 390.421875 665.667969 412.589844 645.285156 408.671875 C 633.695312 406.445312 626.257812 397.851562 625.414062 386.175781 C 624.40625 372.292969 633.957031 361.527344 648.136719 361.222656 C 654.496094 361.085938 660.820312 362.640625 665.152344 367.410156 C 668.972656 371.613281 670.984375 377.917969 670.257812 384.105469 Z M 639.417969 384.164062 "/>
<path style=" stroke:none;fill-rule:nonzero;fill:#29741d;fill-opacity:1;" d="M 602.929688 398.78125 C 602.894531 405.460938 606.824219 402.886719 607.90625 406.589844 C 608.097656 407.234375 605.980469 408.195312 605.101562 408.179688 L 583.867188 407.757812 C 585.703125 404.632812 586.695312 404.125 589.234375 402.21875 L 589.242188 370.816406 L 583.496094 365.46875 L 601.480469 360.835938 L 603.519531 365.421875 C 609.253906 360.242188 619.175781 359.128906 623.863281 366.203125 C 625.210938 368.238281 625.132812 372.105469 623.820312 374.25 C 622.828125 375.871094 619.773438 377.089844 617.027344 376.722656 C 611.769531 376.011719 612.605469 368.835938 609.679688 367.152344 C 607.191406 365.71875 603.078125 370.386719 603.046875 375.996094 Z M 602.929688 398.78125 "/>
<path style=" stroke:none;fill-rule:nonzero;fill:#29741d;fill-opacity:1;" d="M 578.679688 342.660156 C 581.5 355.558594 568.769531 366.136719 568.160156 363.863281 L 567.722656 362.226562 C 570.269531 359.09375 572.613281 355.152344 573.078125 351.5 C 568.191406 350.03125 565.671875 348.269531 565.429688 344.777344 C 565.167969 341.019531 567.46875 338.121094 570.945312 337.480469 C 574.261719 336.875 577.847656 338.851562 578.679688 342.660156 "/>
<path style=" stroke:none;fill-rule:nonzero;fill:#29741d;fill-opacity:1;" d="M 487.527344 335.613281 C 485.949219 333.308594 480.628906 332.484375 477.945312 332.417969 L 462.601562 332.035156 C 459.945312 331.96875 457.816406 337.460938 457.773438 339.953125 C 457.71875 343.0625 459.015625 347.261719 461.957031 348.992188 C 468.488281 352.835938 476.488281 353.160156 482.972656 349.5 C 487.457031 346.96875 491.148438 340.914062 487.527344 335.613281 M 479.195312 290.085938 C 478.386719 287.882812 475.300781 285.945312 473.265625 285.945312 C 471.175781 285.941406 468.136719 287.890625 467.320312 290.136719 C 464.621094 297.585938 464.886719 311.777344 473.273438 311.957031 C 481.128906 312.125 482.1875 298.230469 479.195312 290.085938 M 499.644531 334.90625 C 499.375 343.523438 493.804688 349.78125 486.242188 352.695312 C 472.511719 357.980469 446.027344 355.039062 446.585938 341.054688 C 446.765625 336.515625 450.429688 333.320312 454.777344 330.519531 C 452.097656 328.175781 449.550781 326.09375 448.746094 324.167969 C 447.839844 322.015625 448.671875 317.617188 450.542969 316.265625 C 453.332031 314.246094 455.96875 313.175781 459.75 311.414062 C 452.449219 305.214844 451.457031 295.066406 457.875 288.453125 C 464.28125 281.851562 473.894531 281.546875 482.769531 284.066406 C 484.285156 279.445312 485.585938 275.515625 489.300781 273.34375 C 490.867188 272.429688 494.425781 272.71875 495.867188 273.792969 C 497.269531 274.835938 497.757812 278.207031 496.878906 280.339844 C 494.832031 285.316406 485.945312 280.75 486.164062 285.324219 C 490.046875 289.933594 493.339844 294.097656 492.949219 299.691406 C 492.59375 304.792969 489.769531 309.648438 484.863281 312.417969 C 470.640625 320.453125 460.363281 308.40625 457.9375 318.320312 C 464.398438 325.039062 500.3125 313.738281 499.644531 334.90625 "/>
<path style=" stroke:none;fill-rule:nonzero;fill:#29741d;fill-opacity:1;" d="M 606.601562 292.214844 C 605.097656 288.59375 601.351562 286.292969 597.792969 286.496094 C 594.921875 286.660156 591.4375 288.953125 590.042969 292.226562 C 584.835938 304.453125 586.636719 326.800781 598.738281 326.378906 C 610.332031 325.972656 611.320312 303.566406 606.601562 292.214844 M 577.472656 320.929688 C 571.984375 311.929688 572.246094 300.148438 577.644531 291.628906 C 584.53125 280.769531 599.367188 279.6875 609.066406 287.824219 L 609.316406 269.632812 C 609.378906 265.1875 602.628906 264.46875 604.703125 262.398438 C 605.15625 261.949219 606.578125 261.007812 607.300781 260.863281 L 623.097656 257.679688 L 623.21875 323.914062 L 629.738281 326.183594 C 626.398438 330.171875 622.988281 330.421875 618.671875 330.277344 C 615.171875 330.160156 612.003906 327.574219 609.550781 324.304688 C 600.367188 333.390625 584.484375 332.429688 577.472656 320.929688 "/>
<path style=" stroke:none;fill-rule:nonzero;fill:#29741d;fill-opacity:1;" d="M 552.242188 304.835938 C 548.285156 305.222656 544.683594 305.644531 541.515625 307.40625 C 537.8125 309.460938 537.019531 314.472656 537.347656 318.382812 C 537.699219 322.519531 540.390625 325.09375 544.058594 325.351562 C 552.96875 325.976562 553.035156 311.347656 552.242188 304.835938 M 552.753906 324.105469 C 546.34375 333.253906 531.492188 331.300781 525.957031 325 C 522.9375 321.558594 523.085938 315.652344 524.84375 311.484375 C 528.863281 301.964844 542.335938 302.355469 551.976562 301.3125 C 552.777344 297.546875 552.761719 292.523438 550.707031 288.296875 C 549.859375 286.550781 546.0625 285.472656 544.320312 285.699219 C 535.820312 286.789062 542.996094 298.214844 534.003906 297.957031 C 530.375 297.851562 527.488281 294.839844 528.9375 290.476562 C 532.003906 281.214844 548.214844 281.269531 556.648438 284.558594 C 562.402344 286.804688 566.25 292.171875 566.296875 298.445312 L 566.484375 324.03125 L 572.515625 325.445312 C 570.171875 329.597656 566.1875 330.5625 561.921875 330.199219 C 558.398438 329.902344 555.144531 327.507812 552.753906 324.105469 "/>
<path style=" stroke:none;fill-rule:nonzero;fill:#29741d;fill-opacity:1;" d="M 500.808594 329.347656 C 502.605469 326.652344 503.394531 326.019531 505.613281 324.0625 L 505.609375 273.914062 L 500.375 269.019531 L 517.789062 264.832031 L 517.921875 323.84375 L 522.652344 329.195312 Z M 500.808594 329.347656 "/>
<path style=" stroke:none;fill-rule:nonzero;fill:rgb(96.862793%,96.470642%,97.647095%);fill-opacity:1;" d="M 487.527344 335.613281 C 491.148438 340.914062 487.457031 346.96875 482.972656 349.5 C 476.488281 353.160156 468.488281 352.835938 461.957031 348.992188 C 459.015625 347.261719 457.71875 343.0625 457.773438 339.953125 C 457.816406 337.460938 459.945312 331.96875 462.601562 332.035156 L 477.945312 332.417969 C 480.628906 332.484375 485.949219 333.308594 487.527344 335.613281 "/>
<path style=" stroke:none;fill-rule:nonzero;fill:rgb(96.470642%,96.078491%,97.647095%);fill-opacity:1;" d="M 479.195312 290.085938 C 482.1875 298.230469 481.128906 312.125 473.273438 311.957031 C 464.886719 311.777344 464.621094 297.585938 467.320312 290.136719 C 468.136719 287.890625 471.175781 285.941406 473.265625 285.941406 C 475.300781 285.945312 478.386719 287.882812 479.195312 290.085938 "/>
<path style=" stroke:none;fill-rule:nonzero;fill:rgb(96.862793%,96.862793%,98.039246%);fill-opacity:1;" d="M 606.601562 292.214844 C 611.320312 303.566406 610.332031 325.972656 598.738281 326.378906 C 586.636719 326.800781 584.835938 304.453125 590.042969 292.226562 C 591.4375 288.953125 594.921875 286.660156 597.792969 286.496094 C 601.351562 286.292969 605.097656 288.59375 606.601562 292.214844 "/>
<path style=" stroke:none;fill-rule:nonzero;fill:rgb(95.294189%,94.902039%,96.862793%);fill-opacity:1;" d="M 552.242188 304.835938 C 553.035156 311.347656 552.96875 325.976562 544.058594 325.351562 C 540.390625 325.09375 537.699219 322.519531 537.347656 318.382812 C 537.019531 314.472656 537.8125 309.460938 541.515625 307.40625 C 544.683594 305.644531 548.285156 305.222656 552.242188 304.835938 "/>
<path style=" stroke:none;fill-rule:nonzero;fill:rgb(96.862793%,96.470642%,97.647095%);fill-opacity:1;" d="M 484.945312 370.9375 C 490.226562 383.304688 488.039062 404.65625 477.238281 405.050781 C 465.390625 405.488281 463.175781 383.449219 468.632812 370.839844 C 469.960938 367.769531 473.578125 365.363281 476.277344 365.222656 C 479.761719 365.039062 483.4375 367.402344 484.945312 370.9375 "/>
<path style=" stroke:none;fill-rule:nonzero;fill:rgb(95.294189%,95.294189%,96.862793%);fill-opacity:1;" d="M 658.308594 379.15625 L 638.953125 379.140625 C 639.640625 371.53125 643.332031 363.230469 651.214844 364.585938 C 653.234375 364.933594 656.363281 367.691406 656.765625 370.074219 Z M 658.308594 379.15625 "/>
<path style=" stroke:none;fill-rule:nonzero;fill:#29741d;fill-opacity:1;" d="M 467.722656 454.707031 C 467.714844 448.949219 464.070312 444.949219 459.226562 444.871094 C 455.21875 444.804688 450.035156 448.117188 449.953125 453.40625 L 449.558594 478.914062 C 449.539062 480.171875 451.429688 482.558594 452.507812 483.175781 L 454.421875 484.277344 C 454.808594 484.5 453.808594 486.707031 453.308594 486.703125 L 430.785156 486.492188 C 432.039062 483.277344 433.40625 482.710938 435.894531 480.921875 L 435.890625 424.832031 C 433.492188 422.875 432.675781 422.234375 430.121094 419.507812 L 449.46875 414.914062 L 449.746094 445.324219 C 454.839844 441.113281 459.710938 439.535156 465.890625 439.957031 C 474.507812 440.546875 481.386719 446.757812 481.53125 455.910156 L 481.929688 480.902344 C 484.207031 482.714844 485.28125 483.464844 487.273438 486.355469 C 478.101562 486.84375 471.582031 486.855469 462.519531 486.316406 C 464.363281 483.363281 465.34375 482.761719 467.761719 480.914062 Z M 467.722656 454.707031 "/>
<path style=" stroke:none;fill-rule:nonzero;fill:#29741d;fill-opacity:1;" d="M 611.46875 457.804688 C 610.894531 452.433594 610.179688 449.277344 608.496094 445.582031 C 604.613281 442.085938 599.214844 442.273438 595.898438 446.703125 C 593.695312 449.648438 592.757812 453.757812 592.125 457.828125 Z M 592.609375 462.84375 C 592.457031 469.828125 596.335938 475.585938 601.667969 478.25 C 607.566406 481.199219 615.257812 479.464844 619.773438 475.691406 C 627.703125 469.066406 618.878906 491.246094 598.476562 487.34375 C 586.882812 485.125 579.449219 476.527344 578.605469 464.855469 C 577.601562 450.96875 587.148438 440.207031 601.328125 439.902344 C 607.6875 439.765625 614.011719 441.316406 618.34375 446.089844 C 622.164062 450.292969 624.175781 456.59375 623.449219 462.785156 Z M 592.609375 462.84375 "/>
<path style=" stroke:none;fill-rule:nonzero;fill:#29741d;fill-opacity:1;" d="M 521.867188 457.835938 C 521.421875 451.246094 519.894531 444.113281 514.804688 443.273438 C 506.804688 441.949219 503.234375 450.191406 502.511719 457.816406 Z M 502.980469 462.84375 C 502.824219 469.832031 506.691406 475.601562 512.046875 478.230469 C 518 481.148438 525.476562 479.589844 530.277344 475.566406 C 537.945312 469.140625 529.300781 491.230469 508.84375 487.335938 C 497.25 485.128906 489.816406 476.527344 488.972656 464.855469 C 487.964844 450.96875 497.515625 440.203125 511.695312 439.902344 C 518.054688 439.765625 524.378906 441.320312 528.710938 446.085938 C 532.53125 450.292969 534.542969 456.59375 533.816406 462.785156 Z M 502.980469 462.84375 "/>
<path style=" stroke:none;fill-rule:nonzero;fill:#29741d;fill-opacity:1;" d="M 556.121094 477.460938 C 556.085938 484.148438 560.023438 481.566406 561.097656 485.265625 C 561.285156 485.914062 559.171875 486.875 558.292969 486.855469 L 537.058594 486.4375 C 538.894531 483.3125 539.886719 482.800781 542.425781 480.898438 L 542.4375 449.496094 L 536.6875 444.144531 L 554.671875 439.515625 L 556.710938 444.097656 C 562.441406 438.917969 572.371094 437.808594 577.050781 444.882812 C 578.40625 446.929688 578.324219 450.765625 577.007812 452.929688 C 576.027344 454.542969 572.957031 455.769531 570.222656 455.398438 C 564.972656 454.6875 565.808594 447.566406 562.871094 445.828125 C 560.460938 444.398438 556.265625 448.980469 556.238281 454.667969 Z M 556.121094 477.460938 "/>
<path style=" stroke:none;fill-rule:nonzero;fill:rgb(95.294189%,95.294189%,96.862793%);fill-opacity:1;" d="M 611.46875 457.804688 L 592.125 457.828125 C 592.757812 453.757812 593.695312 449.648438 595.898438 446.703125 C 599.214844 442.273438 604.613281 442.085938 608.496094 445.582031 C 610.179688 449.277344 610.894531 452.433594 611.46875 457.804688 "/>
<path style=" stroke:none;fill-rule:nonzero;fill:rgb(95.294189%,95.294189%,96.862793%);fill-opacity:1;" d="M 521.867188 457.835938 L 502.511719 457.816406 C 503.234375 450.191406 506.804688 441.949219 514.804688 443.273438 C 519.894531 444.113281 521.421875 451.246094 521.867188 457.835938 "/>
</g>
</svg>
