<?xml version="1.0" encoding="UTF-8"?>
<svg xmlns="http://www.w3.org/2000/svg" xmlns:xlink="http://www.w3.org/1999/xlink" width="1080pt" height="1080pt" viewBox="0 0 1080 1080" version="1.2">
<g id="surface1">
<path style=" stroke:none;fill-rule:nonzero;fill:#1B4332;fill-opacity:1;" d="M 267.84375 497.472656 C 278.769531 489.753906 294.234375 492.617188 298.515625 503.550781 C 301.152344 510.289062 301.675781 516.421875 301.402344 523.792969 C 300.273438 553.980469 302.480469 583.492188 309.835938 612.777344 C 314.761719 632.398438 320.320312 650.753906 328.976562 668.855469 C 343.78125 699.792969 364.242188 727.703125 392.339844 747.859375 C 461.246094 797.292969 542.328125 788.960938 610.019531 741.832031 C 656.972656 709.140625 693.210938 660.109375 716.007812 607.921875 C 723.128906 591.621094 728.363281 575.671875 734.003906 558.957031 C 739.71875 542.03125 744.0625 525.75 746.15625 508.105469 C 747.28125 498.617188 754.882812 492.085938 764.125 491.320312 C 776.976562 490.253906 787.710938 501.082031 786.832031 513.96875 C 787.941406 527.007812 785.792969 538.90625 782.214844 551.355469 C 757.871094 648.753906 702.820312 739.855469 614.6875 791.464844 C 580.625 811.410156 543.460938 823.210938 503.929688 825.460938 C 453.980469 828.304688 402.953125 812.203125 363.855469 780.949219 C 297.25 727.703125 263.574219 646.4375 258.746094 562.402344 C 257.847656 546.796875 257.625 531.738281 258.40625 516.113281 C 258.765625 508.9375 262.539062 501.222656 267.84375 497.472656 "/>
<path style=" stroke:none;fill-rule:nonzero;fill:#1B4332;fill-opacity:1;" d="M 607.550781 494.679688 C 610.734375 511.613281 598.160156 517.070312 587.789062 521.777344 L 500.707031 561.308594 C 490.179688 566.085938 478.441406 567.246094 467.441406 564.40625 C 462.910156 563.238281 458.445312 560.703125 454.351562 558.425781 C 443.828125 552.566406 437.683594 541.308594 439.246094 528.859375 C 440.398438 519.71875 441.246094 510.132812 444.480469 500.96875 L 524.417969 274.332031 C 527.585938 265.347656 542.257812 262.933594 548.949219 266.800781 C 553.550781 269.460938 554.332031 276.28125 552.777344 281.246094 L 491.984375 475.058594 L 477.507812 516.582031 C 476.117188 520.5625 478.824219 524.75 483.046875 525.359375 C 487.117188 525.945312 492.578125 526.394531 496.636719 524.589844 L 576.058594 489.289062 C 582.144531 486.585938 588.546875 484.875 594.875 484.460938 C 601.503906 484.023438 606.34375 488.257812 607.550781 494.679688 "/>
<path style=" stroke:none;fill-rule:nonzero;fill:#1B4332;fill-opacity:1;" d="M 440 360.5 C 440 375.136719 428.132812 387 413.5 387 C 398.863281 387 387 375.136719 387 360.5 C 387 345.867188 398.863281 334.003906 413.5 334.003906 C 428.132812 334.003906 440 345.867188 440 360.5 "/>
<path style=" stroke:none;fill-rule:nonzero;fill:#1B4332;fill-opacity:1;" d="M 645 368.5 C 645 383.136719 633.132812 395 618.5 395 C 603.863281 395 592 383.136719 592 368.5 C 592 353.867188 603.863281 342 618.5 342 C 633.132812 342 645 353.867188 645 368.5 "/>
</g>
</svg>
