<?xml version="1.0" encoding="UTF-8"?>
<svg xmlns="http://www.w3.org/2000/svg" xmlns:xlink="http://www.w3.org/1999/xlink" width="1080pt" height="1080pt" viewBox="0 0 1080 1080" version="1.2">
<g id="surface1">
<path style=" stroke:none;fill-rule:nonzero;fill:#29741d;fill-opacity:1;" d="M 448.808594 431.222656 C 448.832031 426.042969 453.496094 423.832031 457.136719 424.050781 C 461.382812 424.308594 463.582031 428.097656 463.40625 432.796875 C 462.382812 460.371094 469.796875 491.386719 491.488281 509.757812 C 507.910156 523.667969 529.230469 527.683594 549.710938 521.058594 C 588.148438 508.628906 611.957031 467.035156 618.242188 429.15625 C 618.8125 425.730469 621.742188 423.339844 624.898438 423.3125 C 628.179688 423.28125 631.878906 425.886719 632.136719 429.683594 C 632.566406 435.996094 631.5625 441.65625 629.882812 447.636719 C 623.773438 469.378906 614.035156 489.371094 598.898438 506.09375 C 586.292969 520.019531 571.335938 530.496094 553.566406 536.128906 C 523.171875 545.757812 491.90625 535.945312 471.972656 511.179688 C 457.140625 492.761719 448.621094 469.824219 448.738281 445.765625 Z M 448.808594 431.222656 "/>
<path style=" stroke:none;fill-rule:nonzero;fill:#29741d;fill-opacity:1;" d="M 568.070312 421.757812 C 571.84375 424.476562 570.054688 430.777344 566.273438 432.492188 L 532.074219 447.996094 C 525.050781 451.179688 515.277344 448.886719 512.109375 441.417969 C 510.542969 437.726562 511.425781 431.796875 512.875 427.683594 L 541.125 347.496094 C 542.136719 344.617188 548.6875 343.867188 550.332031 346.199219 C 551.632812 348.042969 550.492188 352.046875 549.695312 354.546875 L 524.492188 433.554688 C 525.953125 435.070312 529.3125 435.792969 531.328125 434.898438 L 560.421875 421.96875 C 562.117188 421.214844 566.519531 420.644531 568.070312 421.757812 "/>
<path style=" stroke:none;fill-rule:nonzero;fill:#29741d;fill-opacity:1;" d="M 582.976562 380.613281 C 582.976562 385.710938 578.847656 389.839844 573.753906 389.839844 C 568.660156 389.839844 564.527344 385.710938 564.527344 380.613281 C 564.527344 375.519531 568.660156 371.390625 573.753906 371.390625 C 578.847656 371.390625 582.976562 375.519531 582.976562 380.613281 "/>
<path style=" stroke:none;fill-rule:nonzero;fill:#29741d;fill-opacity:1;" d="M 511.652344 377.84375 C 511.652344 382.9375 507.523438 387.066406 502.429688 387.066406 C 497.335938 387.066406 493.207031 382.9375 493.207031 377.84375 C 493.207031 372.753906 497.335938 368.625 502.429688 368.625 C 507.523438 368.625 511.652344 372.753906 511.652344 377.84375 "/>
<path style=" stroke:none;fill-rule:nonzero;fill:#29741d;fill-opacity:1;" d="M 734.082031 691.191406 C 732.40625 687.136719 728.421875 684.472656 724.558594 684.472656 C 720.796875 684.472656 716.734375 687.113281 715.132812 691.167969 C 710.234375 703.5625 711.019531 728.53125 724.546875 728.53125 C 737.957031 728.535156 739.40625 704.078125 734.082031 691.191406 M 709.207031 722.605469 L 702.140625 730.398438 C 701.261719 731.371094 698.902344 732.070312 697.125 731.875 L 697.117188 666.347656 C 697.117188 664.058594 695.238281 661.875 693.648438 660.753906 L 692.007812 659.597656 C 691.535156 659.265625 692.617188 656.964844 693.355469 656.800781 L 712.207031 652.582031 L 712.574219 685.371094 C 724.082031 677.527344 739.386719 678.101562 747.296875 689.691406 C 753.636719 698.980469 753.390625 711.847656 748.472656 721.625 C 744.777344 728.960938 737.351562 732.421875 730.472656 732.953125 C 721.769531 733.621094 714.839844 730.800781 709.207031 722.605469 "/>
<path style=" stroke:none;fill-rule:nonzero;fill:#29741d;fill-opacity:1;" d="M 505.46875 696.960938 C 505.425781 690.507812 501.636719 685.890625 496.074219 685.6875 C 491.222656 685.511719 485.613281 689.191406 485.304688 695.273438 C 483.035156 740.179688 488.441406 722.65625 490.277344 730.644531 C 490.425781 731.308594 488.382812 732.125 487.421875 732.121094 L 466.355469 732.09375 C 465.878906 732.09375 464.207031 730.921875 464.410156 730.550781 C 466.683594 726.417969 469.683594 727.628906 469.683594 723.042969 L 469.675781 693.136719 C 469.675781 687.890625 465.0625 689.148438 464.480469 685.664062 C 464.355469 684.921875 465.945312 683.75 466.796875 683.558594 L 483.773438 679.75 L 484.875 686.460938 C 490.285156 681.414062 496.367188 679.667969 503.707031 680.238281 C 512.777344 680.9375 520.4375 687.453125 520.5625 697.105469 L 520.894531 723.265625 C 520.917969 725.070312 522.890625 727.484375 524.210938 728.378906 L 526.039062 729.617188 C 526.554688 729.96875 524.929688 732.148438 524.113281 732.144531 L 501.21875 732.015625 C 497.667969 727.035156 505.699219 729.511719 505.652344 723.015625 Z M 505.46875 696.960938 "/>
<path style=" stroke:none;fill-rule:nonzero;fill:#29741d;fill-opacity:1;" d="M 683.175781 722.960938 C 683.191406 728.207031 693.492188 731.746094 687.5 731.871094 L 669.085938 732.253906 L 666.929688 727.671875 C 661.917969 731.90625 655.832031 733.484375 649.164062 732.871094 C 640.152344 732.039062 632.652344 725.578125 632.53125 716 L 632.238281 693.140625 C 632.210938 691.074219 630.144531 688.78125 628.503906 687.675781 L 626.996094 686.664062 C 626.519531 686.34375 627.785156 683.949219 628.40625 683.816406 L 647.375 679.789062 L 647.683594 717.054688 C 647.734375 722.78125 651.730469 727.136719 656.707031 727.425781 C 661.785156 727.722656 667.160156 724.058594 667.519531 717.886719 C 669.816406 678.3125 664.636719 692.828125 662.601562 685.734375 C 662.429688 685.140625 663.941406 683.84375 664.585938 683.703125 L 683.0625 679.730469 Z M 683.175781 722.960938 "/>
<path style=" stroke:none;fill-rule:nonzero;fill:#29741d;fill-opacity:1;" d="M 455.734375 722.960938 C 455.746094 728.195312 466.019531 731.746094 460.132812 731.871094 L 441.648438 732.253906 L 439.484375 727.671875 C 434.480469 731.902344 428.390625 733.484375 421.722656 732.871094 C 412.710938 732.039062 405.210938 725.578125 405.089844 716 L 404.796875 693.140625 C 404.769531 691.078125 402.699219 688.765625 401.0625 687.679688 L 399.550781 686.675781 C 399.070312 686.355469 400.347656 683.949219 400.910156 683.828125 L 419.929688 679.789062 L 420.242188 717.050781 C 420.292969 722.78125 424.289062 727.136719 429.265625 727.425781 C 434.347656 727.726562 439.71875 724.058594 440.078125 717.875 C 442.394531 678.164062 437.097656 692.84375 435.160156 685.738281 C 434.996094 685.140625 436.496094 683.84375 437.144531 683.703125 L 455.617188 679.730469 Z M 455.734375 722.960938 "/>
<path style=" stroke:none;fill-rule:nonzero;fill:#29741d;fill-opacity:1;" d="M 600.691406 732.128906 C 600.078125 732.132812 598.632812 729.511719 599.003906 729.3125 L 601.507812 727.945312 C 602.671875 727.3125 604.339844 724.746094 604.339844 723.105469 L 604.351562 666.136719 C 604.351562 664.410156 602.664062 661.992188 601.429688 661.246094 L 599.078125 659.828125 C 598.570312 659.519531 599.820312 656.925781 600.417969 656.796875 L 619.480469 652.699219 L 619.585938 723.539062 C 619.59375 728.066406 630.347656 731.929688 623.921875 731.972656 Z M 600.691406 732.128906 "/>
<path style=" stroke:none;fill-rule:nonzero;fill:#29741d;fill-opacity:1;" d="M 565.890625 689.277344 C 560.816406 697.867188 561.15625 708.878906 566.296875 716.988281 C 572.371094 726.570312 585.855469 725.707031 593.183594 719.492188 C 602.027344 711.992188 591.667969 736.5 570.5 732.925781 C 556.476562 730.558594 547.445312 720.308594 547.40625 706.015625 C 547.375 694.742188 553.472656 684.773438 564.699219 681.570312 C 575.054688 678.621094 592.480469 679.761719 595.484375 691.726562 C 596.167969 694.445312 594.980469 698.265625 593.238281 699.480469 C 590.804688 701.175781 587.15625 701.359375 584.886719 699.976562 C 578.980469 696.382812 584.050781 687.492188 578.929688 684.722656 C 574.1875 682.15625 568.707031 684.507812 565.890625 689.277344 "/>
<path style=" stroke:none;fill-rule:nonzero;fill:#29741d;fill-opacity:1;" d="M 374.171875 723.296875 C 374.160156 728.4375 380.207031 727.890625 379.585938 730.570312 C 379.429688 731.234375 377.625 732.167969 376.792969 732.164062 L 354.585938 732.011719 C 351.074219 726.863281 358.984375 729.710938 358.976562 723.03125 L 358.949219 693.121094 C 358.945312 691.539062 357.027344 688.96875 355.855469 688.140625 L 353.660156 686.585938 C 353.046875 686.152344 354.742188 683.859375 355.597656 683.664062 L 372.863281 679.78125 L 374.292969 685.410156 C 380.304688 678.875 391.164062 677.742188 396.769531 684.9375 C 398.6875 687.394531 398.882812 691.496094 397.433594 694.179688 C 396.335938 696.214844 392.691406 697.78125 390.148438 697.324219 C 383.316406 696.089844 384.964844 689.90625 382.179688 687.179688 C 381.421875 686.433594 378.171875 687.058594 377.460938 687.898438 C 375.808594 689.847656 374.25 694.199219 374.242188 696.9375 Z M 374.171875 723.296875 "/>
<path style=" stroke:none;fill-rule:nonzero;fill:rgb(97.254944%,96.862793%,98.039246%);fill-opacity:1;" d="M 734.082031 691.191406 C 739.40625 704.078125 737.957031 728.535156 724.546875 728.53125 C 711.019531 728.53125 710.234375 703.5625 715.132812 691.167969 C 716.734375 687.113281 720.796875 684.472656 724.558594 684.472656 C 728.421875 684.472656 732.40625 687.136719 734.082031 691.191406 "/>
<path style=" stroke:none;fill-rule:nonzero;fill:#29741d;fill-opacity:1;" d="M 209.996094 652.792969 C 208.398438 650.308594 203.277344 649.242188 200.464844 649.183594 L 181.636719 648.789062 C 177.5 648.703125 176.046875 656.359375 176.53125 659.421875 C 178.246094 670.234375 196.171875 671.703125 204.925781 666.675781 C 209.410156 664.101562 213.492188 658.230469 209.996094 652.792969 M 200.382812 602.242188 C 199.238281 599.074219 195.859375 597.007812 192.851562 597.171875 C 190.40625 597.304688 187.210938 599.523438 186.261719 602.242188 C 183.347656 610.574219 183.753906 626.644531 193.835938 626.304688 C 202.390625 626.015625 203.535156 610.964844 200.382812 602.242188 M 223.066406 653.855469 C 221.605469 662.09375 215.457031 667.898438 207.859375 670.632812 C 193.421875 675.828125 163.71875 673.503906 164.078125 657.824219 C 164.191406 652.796875 168.335938 649.195312 173.296875 646.433594 C 170.5 644.238281 167.863281 642.289062 166.703125 640.476562 C 165.398438 638.425781 165.773438 634.023438 167.359375 632.183594 C 170.167969 628.925781 173.949219 627.625 178.597656 625.957031 C 173.226562 621.914062 170.664062 615.894531 171.566406 608.992188 C 173.4375 594.636719 191.847656 590.320312 204.238281 595.441406 C 205.601562 590.15625 207.160156 585.480469 211.800781 583.082031 C 213.664062 582.117188 217.351562 582.503906 218.96875 583.933594 C 220.394531 585.191406 221.011719 588.566406 220.058594 590.683594 C 217.234375 596.949219 209.011719 591.109375 207.617188 596.445312 C 212.695312 601.53125 216.074219 606.625 215.242188 613.710938 C 214.539062 619.714844 210.761719 625.171875 204.226562 628.128906 C 192.867188 633.273438 188.644531 627.421875 178.507812 629.738281 C 177.433594 629.984375 176.640625 634.035156 177.753906 634.472656 C 187.367188 638.25 199.597656 634.039062 214.167969 638.535156 C 220.785156 640.574219 224.398438 646.355469 223.066406 653.855469 "/>
<path style=" stroke:none;fill-rule:nonzero;fill:#29741d;fill-opacity:1;" d="M 341.25 604.421875 C 339.617188 600.195312 335.699219 597.488281 331.578125 597.703125 C 328.214844 597.875 324.433594 600.5625 322.910156 604.355469 C 317.707031 617.3125 319.101562 642.222656 332.523438 641.726562 C 345.292969 641.25 345.945312 616.574219 341.25 604.421875 M 308.050781 633.890625 C 303.851562 624.550781 303.8125 613.515625 308.675781 604.640625 C 315.671875 591.871094 332.910156 589.652344 343.765625 599.203125 L 344.082031 579.367188 C 344.101562 577.941406 342.273438 575.191406 341.09375 574.378906 L 338.886719 572.863281 C 338.261719 572.433594 339.683594 570.058594 340.605469 569.859375 L 359.171875 565.855469 L 359.324219 639.933594 L 366.378906 641.777344 C 362.53125 646.523438 358.519531 646.363281 353.515625 646.074219 C 350.078125 645.875 346.617188 642.988281 344.441406 639.34375 C 338.910156 645.179688 332.007812 647.269531 323.859375 645.847656 C 318.070312 644.835938 311.328125 641.167969 308.050781 633.890625 "/>
<path style=" stroke:none;fill-rule:nonzero;fill:#29741d;fill-opacity:1;" d="M 745.875 610.007812 C 745.832031 603.527344 741.820312 599.066406 736.460938 598.898438 C 731.472656 598.742188 726.027344 602.46875 725.683594 608.503906 C 723.148438 653.230469 729.199219 636.023438 730.796875 643.871094 C 730.9375 644.566406 728.890625 645.324219 727.820312 645.324219 L 706.726562 645.328125 C 705.996094 645.328125 704.222656 643.070312 704.765625 642.726562 L 707.253906 641.144531 C 708.394531 640.421875 710.082031 638.007812 710.082031 636.320312 L 710.089844 579.355469 C 710.089844 577.089844 708.175781 575.023438 706.53125 574.023438 L 704.84375 572.996094 C 704.324219 572.679688 705.550781 570.15625 706.148438 570.023438 L 725.140625 565.847656 L 725.410156 599.371094 C 730.914062 594.617188 736.851562 592.878906 744.121094 593.445312 C 753.136719 594.148438 760.828125 600.710938 760.953125 610.371094 L 761.296875 636.644531 C 761.363281 641.632812 765.710938 640.066406 766.597656 643.855469 C 766.753906 644.519531 764.710938 645.324219 763.730469 645.324219 L 742.683594 645.332031 C 741.90625 645.332031 740.128906 643.082031 740.667969 642.742188 L 743.019531 641.246094 C 744.261719 640.457031 746.0625 637.960938 746.054688 636.417969 Z M 745.875 610.007812 "/>
<path style=" stroke:none;fill-rule:nonzero;fill:#29741d;fill-opacity:1;" d="M 554.488281 636.171875 C 554.503906 641.410156 564.785156 644.960938 558.878906 645.082031 L 540.398438 645.46875 L 538.242188 640.886719 C 533.234375 645.117188 527.148438 646.695312 520.480469 646.082031 C 511.46875 645.253906 503.96875 638.789062 503.84375 629.214844 L 503.554688 606.351562 C 503.527344 604.285156 501.457031 601.992188 499.820312 600.890625 L 498.3125 599.875 C 497.832031 599.554688 499.105469 597.160156 499.667969 597.042969 L 518.6875 593 L 519 630.265625 C 519.046875 635.992188 523.046875 640.347656 528.023438 640.640625 C 533.101562 640.9375 538.476562 637.273438 538.835938 631.101562 C 541.132812 591.519531 535.953125 606.042969 533.917969 598.949219 C 533.746094 598.351562 535.253906 597.054688 535.902344 596.917969 L 554.375 592.941406 Z M 554.488281 636.171875 "/>
<path style=" stroke:none;fill-rule:nonzero;fill:#29741d;fill-opacity:1;" d="M 280.636719 634.117188 C 282.066406 628.984375 281.988281 623.929688 281.78125 618.488281 C 277.714844 618.765625 273.964844 619.199219 270.277344 620.558594 C 265.988281 622.140625 264.285156 627.015625 264.191406 631.183594 C 264.074219 636.085938 266.554688 639.777344 270.683594 640.460938 C 274.746094 641.132812 279.203125 639.273438 280.636719 634.117188 M 282.535156 639.261719 C 275.683594 648.671875 258.410156 648.011719 251.96875 640.496094 C 248.519531 636.464844 248.417969 630.417969 250.65625 625.371094 C 255.339844 614.796875 271.097656 615.636719 281.570312 614.273438 C 281.957031 610.050781 281.886719 605.394531 280.585938 601.132812 C 279.75 598.390625 275.988281 596.84375 273.699219 596.828125 C 262.421875 596.761719 270.867188 608.335938 262.269531 610.570312 C 259.605469 611.265625 255.445312 609.640625 254.839844 606.175781 C 252.636719 593.496094 273.378906 591.109375 285.460938 595.214844 C 292.46875 597.597656 297.015625 603.851562 297.039062 611.269531 L 297.136719 637.359375 C 297.144531 638.96875 299.796875 640.382812 301.183594 640.195312 C 302.042969 640.082031 303.324219 640.050781 303.355469 640.476562 C 303.394531 641.046875 303.070312 642.539062 302.589844 642.96875 C 297.019531 647.957031 286.167969 647.484375 282.535156 639.261719 "/>
<path style=" stroke:none;fill-rule:nonzero;fill:#29741d;fill-opacity:1;" d="M 477.585938 604.410156 C 475.863281 600.417969 471.925781 597.835938 468.160156 597.867188 C 464.75 597.894531 460.847656 600.148438 459.132812 603.777344 C 452.5 617.777344 455.359375 642.746094 469.171875 641.699219 C 480.984375 640.808594 483.320312 617.679688 477.585938 604.410156 M 488.617188 638.730469 C 477.394531 649.167969 459.015625 648.863281 447.984375 638.953125 C 437.097656 629.179688 437.070312 610.394531 447.953125 600.625 C 459.039062 590.671875 477.339844 590.644531 488.421875 600.605469 C 499.066406 610.171875 499.480469 628.628906 488.617188 638.730469 "/>
<path style=" stroke:none;fill-rule:nonzero;fill:#29741d;fill-opacity:1;" d="M 905.777344 613.324219 C 905.558594 607.558594 904.261719 598.074219 897.925781 597.039062 C 889.1875 595.605469 884.609375 605.957031 884.984375 613.289062 Z M 914.878906 633.28125 L 917.054688 631.710938 C 922.980469 627.4375 913.488281 649.519531 892.753906 646.050781 C 879 643.75 870.273438 634.128906 869.609375 620.304688 C 868.886719 605.230469 879.261719 593.652344 894.722656 593.359375 C 901.773438 593.226562 908.75 594.894531 913.445312 599.988281 C 917.972656 604.894531 920.25 611.816406 919.28125 618.804688 L 885.160156 618.894531 C 884.917969 626.621094 889.117188 632.882812 895.015625 635.644531 C 901.449219 638.652344 908.78125 637.679688 914.878906 633.28125 "/>
<path style=" stroke:none;fill-rule:nonzero;fill:#29741d;fill-opacity:1;" d="M 805.023438 613.328125 C 804.824219 607.585938 803.472656 598.027344 797.183594 597.046875 C 788.347656 595.667969 783.894531 605.929688 784.230469 613.289062 Z M 814.125 633.28125 L 816.304688 631.707031 C 822.230469 627.433594 812.738281 649.519531 792.003906 646.050781 C 778.246094 643.75 769.519531 634.125 768.855469 620.304688 C 768.132812 605.230469 778.507812 593.65625 793.972656 593.359375 C 801.019531 593.222656 807.996094 594.894531 812.695312 599.988281 C 817.21875 604.894531 819.496094 611.8125 818.527344 618.804688 L 784.40625 618.894531 C 784.164062 626.621094 788.363281 632.882812 794.265625 635.644531 C 800.695312 638.652344 808.03125 637.679688 814.125 633.28125 "/>
<path style=" stroke:none;fill-rule:nonzero;fill:#29741d;fill-opacity:1;" d="M 668.359375 613.328125 C 668.140625 607.585938 666.863281 598.050781 660.472656 597.035156 C 651.757812 595.648438 647.203125 605.925781 647.566406 613.289062 Z M 677.460938 633.28125 L 679.632812 631.714844 C 685.566406 627.441406 676.070312 649.515625 655.335938 646.050781 C 641.582031 643.75 632.855469 634.128906 632.191406 620.304688 C 631.46875 605.230469 641.84375 593.65625 657.304688 593.359375 C 664.355469 593.226562 671.332031 594.894531 676.03125 599.988281 C 680.554688 604.894531 682.832031 611.8125 681.863281 618.804688 L 647.742188 618.894531 C 647.5 626.621094 651.699219 632.882812 657.597656 635.644531 C 664.027344 638.65625 671.363281 637.675781 677.460938 633.28125 "/>
<path style=" stroke:none;fill-rule:nonzero;fill:#29741d;fill-opacity:1;" d="M 441.148438 596.765625 C 437.609375 598.867188 435.488281 600.183594 434.300781 603.058594 L 414.164062 651.808594 C 412.171875 656.632812 409.371094 661.546875 405.839844 665.292969 C 400.246094 671.226562 389.765625 670.734375 384.453125 664.886719 C 383.152344 663.449219 382.824219 659.933594 383.433594 658.210938 C 384.042969 656.472656 386.839844 654.957031 389.324219 655.019531 C 394.648438 655.148438 393.640625 662.957031 397.316406 663.753906 C 403.953125 665.1875 409.210938 652.886719 410.691406 647.414062 L 390.496094 602.949219 C 389.578125 600.925781 386.890625 599.015625 385.117188 597.878906 L 383.433594 596.800781 C 382.957031 596.496094 384.4375 594.324219 385.105469 594.324219 L 409.273438 594.417969 C 409.984375 594.421875 411.109375 596.609375 410.679688 596.917969 L 408.605469 598.394531 C 407.476562 599.199219 406.4375 601.960938 407.035156 603.390625 L 418.117188 629.945312 L 429.699219 602 C 430.796875 599.355469 422.167969 594.457031 428.679688 594.367188 L 439.417969 594.21875 C 439.511719 594.21875 440.515625 595.722656 441.148438 596.765625 "/>
<path style=" stroke:none;fill-rule:nonzero;fill:#29741d;fill-opacity:1;" d="M 843.023438 636.511719 C 843.007812 641.648438 849.058594 641.105469 848.433594 643.785156 C 848.28125 644.449219 846.472656 645.382812 845.644531 645.378906 L 823.433594 645.226562 C 819.929688 640.066406 827.828125 642.933594 827.824219 636.242188 L 827.796875 606.335938 C 827.796875 604.753906 825.878906 602.179688 824.707031 601.351562 L 822.511719 599.800781 C 821.894531 599.367188 823.589844 597.070312 824.445312 596.878906 L 841.714844 592.992188 L 843.144531 598.625 C 849.160156 592.085938 860.003906 590.960938 865.625 598.148438 C 867.519531 600.574219 867.726562 604.703125 866.289062 607.386719 C 865.195312 609.421875 861.550781 610.996094 859 610.535156 C 852.171875 609.308594 853.808594 603.117188 851.03125 600.390625 C 850.269531 599.648438 847.019531 600.269531 846.304688 601.113281 C 844.667969 603.050781 843.097656 607.410156 843.089844 610.152344 Z M 843.023438 636.511719 "/>
<path style=" stroke:none;fill-rule:nonzero;fill:#29741d;fill-opacity:1;" d="M 605.605469 636.511719 C 605.589844 641.648438 611.640625 641.105469 611.019531 643.785156 C 610.863281 644.449219 609.054688 645.382812 608.226562 645.378906 L 586.019531 645.226562 C 582.507812 640.070312 590.414062 642.929688 590.40625 636.246094 L 590.378906 606.335938 C 590.378906 604.753906 588.460938 602.179688 587.289062 601.351562 L 585.09375 599.800781 C 584.480469 599.367188 586.171875 597.070312 587.03125 596.878906 L 604.296875 592.992188 L 605.726562 598.625 C 611.742188 592.085938 622.585938 590.960938 628.207031 598.148438 C 630.105469 600.574219 630.308594 604.703125 628.871094 607.386719 C 627.78125 609.421875 624.132812 610.996094 621.582031 610.535156 C 614.75 609.308594 616.394531 603.113281 613.613281 600.390625 C 612.851562 599.648438 609.605469 600.269531 608.851562 601.160156 C 607.328125 602.960938 605.679688 607.414062 605.671875 610.148438 Z M 605.605469 636.511719 "/>
<path style=" stroke:none;fill-rule:nonzero;fill:#29741d;fill-opacity:1;" d="M 225.308594 645.398438 L 225.546875 642.570312 C 227.734375 641.613281 229.792969 639.785156 229.78125 637.207031 L 229.539062 583.851562 C 229.535156 582.464844 223.78125 581.449219 224.855469 578.652344 L 243.175781 574.402344 L 243.277344 639.089844 L 248.617188 644.910156 Z M 225.308594 645.398438 "/>
<path style=" stroke:none;fill-rule:nonzero;fill:#29741d;fill-opacity:1;" d="M 579.453125 573.261719 C 581.101562 586.925781 570.160156 597.496094 567.648438 595.761719 C 565.046875 593.96875 572.691406 589.519531 573.433594 581.699219 C 568.046875 581.332031 565.035156 579.027344 564.65625 574.855469 C 564.257812 570.492188 566.890625 567.085938 570.96875 566.527344 C 575.171875 565.953125 578.894531 568.632812 579.453125 573.261719 "/>
<path style=" stroke:none;fill-rule:nonzero;fill:rgb(95.68634%,95.294189%,96.862793%);fill-opacity:1;" d="M 200.382812 602.242188 C 203.535156 610.96875 202.390625 626.015625 193.835938 626.304688 C 183.753906 626.644531 183.347656 610.574219 186.261719 602.242188 C 187.210938 599.523438 190.40625 597.304688 192.851562 597.171875 C 195.859375 597.007812 199.238281 599.074219 200.382812 602.242188 "/>
<path style=" stroke:none;fill-rule:nonzero;fill:rgb(94.902039%,94.509888%,96.862793%);fill-opacity:1;" d="M 280.636719 634.117188 C 279.203125 639.273438 274.746094 641.132812 270.683594 640.460938 C 266.554688 639.777344 264.074219 636.085938 264.191406 631.183594 C 264.285156 627.015625 265.988281 622.140625 270.277344 620.558594 C 273.964844 619.199219 277.714844 618.765625 281.78125 618.488281 C 281.988281 623.929688 282.066406 628.984375 280.636719 634.117188 "/>
</g>
</svg>
